REM DIRINDEX 1\2,1\4,1\5,1\6,1\7,1\3\8,1\3\9,1\3\10
REM DIRNAME cjc113,folder01,folder02,folder03,folder04,folder05,folder06,folder07,folder08,folder09
TITLE ""
FILE "DB4500_5th_2A_38.mp3" MP3
  TRACK 01 AUDIO
    TITLE "8:cjc113_1425"
    INDEX 01 00:00:00
  TRACK 02 AUDIO
    TITLE "0:"
    INDEX 01 00:01:24
  TRACK 03 AUDIO
    TITLE "9:cjc113_1426"
    INDEX 01 00:01:46
  TRACK 04 AUDIO
    TITLE "0:"
    INDEX 01 00:02:69
  TRACK 05 AUDIO
    TITLE "10:cjc113_1427"
    INDEX 01 00:03:14
  TRACK 06 AUDIO
    TITLE "0:"
    INDEX 01 00:06:20
  TRACK 07 AUDIO
    TITLE "8:cjc113_1428"
    INDEX 01 00:06:65
  TRACK 08 AUDIO
    TITLE "0:"
    INDEX 01 00:08:01
  TRACK 09 AUDIO
    TITLE "9:cjc113_1429"
    INDEX 01 00:08:21
  TRACK 10 AUDIO
    TITLE "0:"
    INDEX 01 00:09:38
  TRACK 11 AUDIO
    TITLE "10:cjc113_1430"
    INDEX 01 00:09:61
  TRACK 12 AUDIO
    TITLE "0:"
    INDEX 01 00:12:24
  TRACK 13 AUDIO
    TITLE "8:cjc113_1431"
    INDEX 01 00:12:71
  TRACK 14 AUDIO
    TITLE "0:"
    INDEX 01 00:14:07
  TRACK 15 AUDIO
    TITLE "9:cjc113_1432"
    INDEX 01 00:14:25
  TRACK 16 AUDIO
    TITLE "0:"
    INDEX 01 00:15:48
  TRACK 17 AUDIO
    TITLE "10:cjc113_1433"
    INDEX 01 00:15:68
  TRACK 18 AUDIO
    TITLE "0:"
    INDEX 01 00:18:54
  TRACK 19 AUDIO
    TITLE "8:cjc113_1434"
    INDEX 01 00:19:26
  TRACK 20 AUDIO
    TITLE "0:"
    INDEX 01 00:20:43
  TRACK 21 AUDIO
    TITLE "9:cjc113_1435"
    INDEX 01 00:20:65
  TRACK 22 AUDIO
    TITLE "0:"
    INDEX 01 00:22:27
  TRACK 23 AUDIO
    TITLE "10:cjc113_1436"
    INDEX 01 00:22:52
  TRACK 24 AUDIO
    TITLE "0:"
    INDEX 01 00:26:13
  TRACK 25 AUDIO
    TITLE "8:cjc113_1437"
    INDEX 01 00:26:62
  TRACK 26 AUDIO
    TITLE "0:"
    INDEX 01 00:28:13
  TRACK 27 AUDIO
    TITLE "9:cjc113_1438"
    INDEX 01 00:28:33
  TRACK 28 AUDIO
    TITLE "0:"
    INDEX 01 00:29:52
  TRACK 29 AUDIO
    TITLE "10:cjc113_1439"
    INDEX 01 00:29:74
  TRACK 30 AUDIO
    TITLE "0:"
    INDEX 01 00:34:20
  TRACK 31 AUDIO
    TITLE "8:cjc113_1440"
    INDEX 01 00:34:69
  TRACK 32 AUDIO
    TITLE "0:"
    INDEX 01 00:36:15
  TRACK 33 AUDIO
    TITLE "9:cjc113_1441"
    INDEX 01 00:36:38
  TRACK 34 AUDIO
    TITLE "0:"
    INDEX 01 00:38:06
  TRACK 35 AUDIO
    TITLE "10:cjc113_1442"
    INDEX 01 00:38:22
  TRACK 36 AUDIO
    TITLE "0:"
    INDEX 01 00:42:74
  TRACK 37 AUDIO
    TITLE "8:cjc113_1443"
    INDEX 01 00:43:46
  TRACK 38 AUDIO
    TITLE "0:"
    INDEX 01 00:44:65
  TRACK 39 AUDIO
    TITLE "9:cjc113_1444"
    INDEX 01 00:45:12
  TRACK 40 AUDIO
    TITLE "0:"
    INDEX 01 00:46:45
  TRACK 41 AUDIO
    TITLE "10:cjc113_1445"
    INDEX 01 00:46:66
  TRACK 42 AUDIO
    TITLE "0:"
    INDEX 01 00:50:60
  TRACK 43 AUDIO
    TITLE "8:cjc113_1446"
    INDEX 01 00:51:32
  TRACK 44 AUDIO
    TITLE "0:"
    INDEX 01 00:52:41
  TRACK 45 AUDIO
    TITLE "9:cjc113_1447"
    INDEX 01 00:52:63
  TRACK 46 AUDIO
    TITLE "0:"
    INDEX 01 00:54:34
  TRACK 47 AUDIO
    TITLE "10:cjc113_1448"
    INDEX 01 00:54:56
  TRACK 48 AUDIO
    TITLE "0:"
    INDEX 01 00:57:60
  TRACK 49 AUDIO
    TITLE "8:cjc113_1449"
    INDEX 01 00:58:34
  TRACK 50 AUDIO
    TITLE "0:"
    INDEX 01 00:59:51
  TRACK 51 AUDIO
    TITLE "9:cjc113_1450"
    INDEX 01 01:00:00
  TRACK 52 AUDIO
    TITLE "0:"
    INDEX 01 01:01:42
  TRACK 53 AUDIO
    TITLE "10:cjc113_1451"
    INDEX 01 01:01:64
  TRACK 54 AUDIO
    TITLE "0:"
    INDEX 01 01:05:07
  TRACK 55 AUDIO
    TITLE "8:cjc113_1452"
    INDEX 01 01:05:54
  TRACK 56 AUDIO
    TITLE "0:"
    INDEX 01 01:07:02
  TRACK 57 AUDIO
    TITLE "9:cjc113_1453"
    INDEX 01 01:07:23
  TRACK 58 AUDIO
    TITLE "0:"
    INDEX 01 01:08:70
  TRACK 59 AUDIO
    TITLE "10:cjc113_1454"
    INDEX 01 01:09:18
  TRACK 60 AUDIO
    TITLE "0:"
    INDEX 01 01:13:40
  TRACK 61 AUDIO
    TITLE "8:cjc113_1455"
    INDEX 01 01:14:14
  TRACK 62 AUDIO
    TITLE "0:"
    INDEX 01 01:15:31
  TRACK 63 AUDIO
    TITLE "9:cjc113_1456"
    INDEX 01 01:15:54
  TRACK 64 AUDIO
    TITLE "0:"
    INDEX 01 01:17:20
  TRACK 65 AUDIO
    TITLE "10:cjc113_1457"
    INDEX 01 01:17:41
  TRACK 66 AUDIO
    TITLE "0:"
    INDEX 01 01:20:59
